# xmcd
#
# Track frame offsets: 
#        150
#        25576
#        46681
#        63498
#        86077
#        112485
#        136900
#        164768
#        192745
#        217098
#        233373
#        257806
#        278758
#        302427
#        320131
#        346365
#
# Disc length: 4796 seconds
#
# Revision: 1
# Processed by: cddbd v1.5.2PL0 Copyright (c) Steve Scherf et al.
# Submitted via: ExactAudioCopy v1.1
#
DISCID=f112ba10
DTITLE=Various Artist - Trail Of The Wolf - vol.05 - Various Of The B
DTITLE=lues  CD1
DYEAR=2017
DGENRE=Blues
TTITLE0=The Radio Kings - I'm Not Trippin'
TTITLE1=Joe Beard and Ronnie Earl - Lay For Me Sometime
TTITLE2=Eric Burdon - Circuit Rider
TTITLE3=David Gogo - Time Is Killing Me
TTITLE4=Jim Suhler and Monkey Beat - Sure As The Sun Rises
TTITLE5=Enrico Crivellaro - Dano Mite
TTITLE6=Tinsley Ellis - Early in the Morning
TTITLE7=Ronnie Earl - Glimpses Of Serenity
TTITLE8=Rory Gallagher - I'm Not Awake Yet
TTITLE9=Snowy White - Softly
TTITLE10=Toronzo Cannon - I Am
TTITLE11=Ana Popovic - How the Mighty Have Fallen
TTITLE12=Keb' Mo' - A Better Man
TTITLE13=Jim Suhler and Monkey Beat - I.O.U.
TTITLE14=Popa Chubby and Galea - Break Me Down
TTITLE15=John Hiatt - What Do We Do Now
EXTD=
EXTT0=
EXTT1=
EXTT2=
EXTT3=
EXTT4=
EXTT5=
EXTT6=
EXTT7=
EXTT8=
EXTT9=
EXTT10=
EXTT11=
EXTT12=
EXTT13=
EXTT14=
EXTT15=
PLAYORDER=
